<svg xmlns="http://www.w3.org/2000/svg" width="107" height="107" fill="none"><g clip-path="url(#clip0)"><path fill="#00D66B" fill-rule="evenodd" d="M89.2 21.5c3.8 2.1 5.8 5.2 2.1 9-9.3-7.9-15-2.2-3 7.8 12.4 10.3 13.4 2 7.2-4.3 1.5-1.5 2.4-4 2.6-7 10.5 9.7 12 27.6 2.9 42.3-10.2 16.4-29.8 22.7-43.7 14-14-8.7-17-29-6.8-45.4 9-14.5 25.3-21.1 38.7-16.4z" clip-rule="evenodd"/><path fill="#000" d="M2.9 42.8C2 31.3 12.8 24.4 23.3 23.3c.5 0 .6.6.2.8-8.3 3.7-8 11.8-6.2 18.3a1 1 0 01-1 1.3H3.8a1 1 0 01-1-.9zM23.5 87.9C6 87.9 0 79 0 68.7c0-13 9.5-19 23.2-18 .5 0 .5.8 0 .9-5.2 1.2-7.8 4.8-7.8 17.1 0 17.1 10 17.8 15.3 16.6.4 0 .7.4.3.6-1.8 1-4.6 2-7.5 2z"/><path fill="#000" fill-rule="evenodd" d="M33.3 23.4c11.5 1.5 22 9.7 22 20.3v31c0 7.1 4 9.7 7.5 10.1.4 0 .6.6.3.9a14.4 14.4 0 01-8.7 2.2c-5.3 0-12-3-12-13.3V43.7v-.5c0-6 0-14.9-9.3-18.9-.5-.2-.3-1 .2-1z" clip-rule="evenodd"/></g><defs><clipPath id="clip0"><path fill="#fff" d="M0 0h107v107H0V0z"/></clipPath></defs></svg>