<svg xmlns="http://www.w3.org/2000/svg" width="1080" height="1080" fill="none"><path fill="#fff" d="M0 0h1080v1080H0V0z"/><rect width="159.57" height="319.45" x="618.39" y="137.06" fill="#fff" stroke="#00D66B" stroke-width="2" rx="21"/><path fill="#fff" stroke="#00D66B" stroke-width="2" d="M625.19 165.78c0-4.03 0-6.99.2-9.33.18-2.32.56-3.94 1.26-5.3a13.38 13.38 0 015.87-5.83c1.38-.7 3.02-1.07 5.37-1.26 2.35-.2 5.34-.2 9.4-.2h8.81a3.18 3.18 0 013.18 3.18 9.35 9.35 0 009.35 9.36h62.7a9.35 9.35 0 009.35-9.36 3.18 3.18 0 013.17-3.17h5.21c4.06 0 7.04 0 9.4.19 2.35.19 3.98.56 5.36 1.26a13.38 13.38 0 015.88 5.82c.7 1.37 1.07 2.99 1.26 5.31.2 2.34.2 5.3.2 9.33V427.8c0 4.03 0 6.99-.2 9.32-.19 2.33-.56 3.95-1.26 5.31a13.38 13.38 0 01-5.88 5.83c-1.38.7-3.01 1.07-5.36 1.26-2.36.19-5.34.19-9.4.19H647.29c-4.06 0-7.05 0-9.4-.2-2.35-.18-3.99-.56-5.37-1.25a13.38 13.38 0 01-5.87-5.83c-.7-1.36-1.08-2.98-1.27-5.3-.19-2.34-.2-5.3-.2-9.33V165.77z"/><circle cx="639.8" cy="347.8" r="6.8" fill="#00D66B"/><circle cx="639.8" cy="373.8" r="6.8" fill="#00D66B"/><circle cx="639.8" cy="399.8" r="6.8" fill="#00D66B"/><mask id="a" width="149" height="38" x="624" y="413" maskUnits="userSpaceOnUse"><path fill="#fff" fill-rule="evenodd" d="M772.16 413.3v37.4H624.19v-37.4h45.7c3.35 0 6.23 1.46 8.6 3.44a33.56 33.56 0 016 6.9 16.53 16.53 0 0013.68 7.1c5.74 0 10.77-2.84 13.69-7.1a33.5 33.5 0 016-6.9c2.37-1.98 5.24-3.45 8.59-3.45h45.7zm-45.71 1.7c-5.64 0-10 4.94-13.19 9.6a18.23 18.23 0 01-15.09 7.84c-6.3 0-11.85-3.12-15.09-7.85-3.18-4.65-7.55-9.6-13.18-9.6h-44.01v34.02h144.57v-34.02h-44.01z" clip-rule="evenodd"/></mask><g mask="url(#a)"><path fill="#000" fill-opacity=".27" d="M625.89 413.3h144.57V449H625.89v-35.7z"/></g><path stroke="#000" stroke-width="2" d="M639.5 163.28l-5.1 5.1 5.1 5.1M634.4 425.2h10.7M634.4 428.6h10.7M634.4 432h10.7"/><g clip-path="url(#clip0)"><path stroke="#000" stroke-width="2" d="M665.55 434.13a4.03 4.03 0 11-8.05 0 4.03 4.03 0 018.05 0zM663.54 425.66a2.01 2.01 0 11-4.03 0 2.01 2.01 0 014.03 0z"/></g><g clip-path="url(#clip1)"><path stroke="#fff" stroke-width="2" d="M644 354.49c0 2.22-1.8 4.02-4 4.02s-4-1.8-4-4.02c0-2.23 1.8-4.03 4-4.03s4 1.8 4 4.03zM642 346.01a2 2 0 01-2 2.02 2 2 0 01-2-2.01 2 2 0 012-2.02 2 2 0 012 2.01z"/></g><g clip-path="url(#clip2)"><path stroke="#fff" stroke-width="2" d="M644 380.49c0 2.22-1.8 4.02-4 4.02s-4-1.8-4-4.02c0-2.23 1.8-4.03 4-4.03s4 1.8 4 4.03zM642 372.01a2 2 0 01-2 2.02 2 2 0 01-2-2.01 2 2 0 012-2.02 2 2 0 012 2.01z"/></g><g clip-path="url(#clip3)"><path stroke="#fff" stroke-width="2" d="M644 406.49c0 2.22-1.8 4.02-4 4.02s-4-1.8-4-4.02c0-2.23 1.8-4.03 4-4.03s4 1.8 4 4.03zM642 398.01a2 2 0 01-2 2.02 2 2 0 01-2-2.01 2 2 0 012-2.02 2 2 0 012 2.01z"/></g><path stroke="#000" stroke-width="2" d="M757.55 427.75a3.25 3.25 0 11-6.5 0 3.25 3.25 0 016.5 0zM756.85 430.3l3.4 3.4"/><rect width="118.76" height="66.03" x="633.69" y="215.3" stroke="#000" stroke-opacity=".27" stroke-width="2" rx="4"/><g clip-path="url(#clip4)"><rect width="69" height="67" x="761" y="215" stroke="#000" stroke-opacity=".27" stroke-width="2" rx="4"/></g><rect width="94" height="11" x="633" y="196" fill="#000" fill-opacity=".27" rx="2"/><rect width="40.82" height="5.1" x="632.69" y="187.09" fill="#000" fill-opacity=".27" rx="2"/><rect width="17" height="5" x="633" y="149" fill="#000" fill-opacity=".27" rx="2"/><rect width="31" height="3" x="684" y="147" fill="#000" fill-opacity=".27" rx="1.5"/><rect width="5" height="4" x="744" y="149" fill="#000" fill-opacity=".27" rx="2"/><rect width="5" height="4" x="752" y="149" fill="#000" fill-opacity=".27" rx="2"/><rect width="5" height="4" x="760" y="149" fill="#000" fill-opacity=".27" rx="2"/><rect width="120" height="5" x="633" y="289" fill="#000" fill-opacity=".27" rx="2"/><rect width="112" height="5" x="633" y="298" fill="#000" fill-opacity=".27" rx="2"/><rect width="48" height="5" x="633" y="306" fill="#000" fill-opacity=".27" rx="2"/><rect width="45" height="3" x="653" y="351" fill="#000" fill-opacity=".27" rx="1.5"/><path fill="#C4C4C4" d="M626 333h144v2H626zM653 359h117v1H653zM653 385h117v1H653z"/><rect width="57" height="3" x="653" y="377" fill="#000" fill-opacity=".27" rx="1.5"/><rect width="29" height="3" x="653" y="403" fill="#000" fill-opacity=".27" rx="1.5"/><rect width="63" height="5" x="653" y="342" fill="#000" fill-opacity=".27" rx="2"/><rect width="50" height="5" x="653" y="368" fill="#000" fill-opacity=".27" rx="2"/><rect width="74" height="5" x="653" y="394" fill="#000" fill-opacity=".27" rx="2"/><rect width="18" height="7" x="634" y="318" stroke="#000" stroke-opacity=".27" stroke-width="2" rx="3.5"/><rect width="18" height="7" x="658" y="318" stroke="#000" stroke-opacity=".27" stroke-width="2" rx="3.5"/><rect width="18" height="7" x="682" y="318" stroke="#000" stroke-opacity=".27" stroke-width="2" rx="3.5"/><circle cx="760.04" cy="163.91" r="1.49" fill="#000"/><circle cx="760.04" cy="168.38" r="1.49" fill="#000"/><circle cx="760.04" cy="172.84" r="1.49" fill="#000"/><path stroke="#000" stroke-linecap="round" stroke-linejoin="round" stroke-width="2" d="M673.51 444.6h47.62"/><circle cx="697.75" cy="414.65" r="12.5" fill="#00D66B"/><path stroke="#000" stroke-width="2" d="M697.75 409.3V420M692.4 414.65h10.7"/><path stroke="#BABABA" stroke-width="2" d="M751 217l-116 62.5M634.5 216.5l117 63"/><rect width="484" height="284" x="88" y="72" stroke="#00D66B" stroke-width="2" rx="3"/><path fill="#00D66B" d="M87 91h486v2H87z"/><circle cx="96.93" cy="81.63" r="3.4" fill="#000" fill-opacity=".27"/><circle cx="108.83" cy="81.63" r="3.4" fill="#000" fill-opacity=".27"/><circle cx="120.74" cy="81.63" r="3.4" fill="#000" fill-opacity=".27"/><path fill="#000" fill-opacity=".27" d="M223.08 290.66a1 1 0 01.95-.68h55.77a1 1 0 01.95 1.31l-1.04 3.1a1 1 0 01-.95.69H223a1 1 0 01-.95-1.32l1.03-3.1zM222.9 300.9a1 1 0 01.96-.72h49.18a1 1 0 01.96 1.28l-.92 3.1a1 1 0 01-.96.72h-49.17a1 1 0 01-.96-1.28l.91-3.1zM222.64 311.15a1 1 0 01.97-.76h39.29a1 1 0 01.97 1.23l-.74 3.1a1 1 0 01-.97.77h-39.29a1 1 0 01-.97-1.23l.74-3.1z"/><rect width="83.41" height="8.5" x="213.1" y="125" fill="#000" fill-opacity=".27" rx="1"/><rect width="40.85" height="8.5" x="213.1" y="138.61" fill="#000" fill-opacity=".27" rx="1"/><rect width="73.19" height="5.1" x="213.1" y="177.72" fill="#000" fill-opacity=".27" rx="1"/><rect width="66.39" height="5.1" x="213.1" y="194.73" fill="#000" fill-opacity=".27" rx="1"/><rect width="69.79" height="5.1" x="213.1" y="211.74" fill="#000" fill-opacity=".27" rx="1"/><rect width="74.9" height="5.1" x="213.1" y="228.75" fill="#000" fill-opacity=".27" rx="1"/><rect width="66.39" height="5.1" x="213.1" y="245.76" fill="#000" fill-opacity=".27" rx="1"/><rect width="69.79" height="5.1" x="213.1" y="262.76" fill="#000" fill-opacity=".27" rx="1"/><rect width="74.9" height="5.1" x="213.1" y="186.23" fill="#000" fill-opacity=".27" rx="1"/><rect width="74.9" height="5.1" x="213.1" y="203.24" fill="#000" fill-opacity=".27" rx="1"/><rect width="73.19" height="5.1" x="213.1" y="220.24" fill="#000" fill-opacity=".27" rx="1"/><rect width="74.9" height="5.1" x="213.1" y="237.25" fill="#000" fill-opacity=".27" rx="1"/><rect width="74.9" height="5.1" x="213.1" y="254.26" fill="#000" fill-opacity=".27" rx="1"/><rect width="74.9" height="5.1" x="213.1" y="271.27" fill="#000" fill-opacity=".27" rx="1"/><rect width="69.79" height="5.1" fill="#000" fill-opacity=".27" rx="1" transform="matrix(1 0 0 -1 213.1 342.7)"/><rect width="74.9" height="5.1" fill="#000" fill-opacity=".27" rx="1" transform="matrix(1 0 0 -1 213.1 351.2)"/><rect width="74.9" height="5.1" fill="#000" fill-opacity=".27" rx="1" transform="matrix(1 0 0 -1 213.1 334.2)"/><rect width="40.85" height="1.7" x="225.01" y="155.61" fill="#000" fill-opacity=".27" rx=".85"/><rect width="13.62" height="1.7" x="225.01" y="159.02" fill="#000" fill-opacity=".27" rx=".85"/><ellipse cx="217.35" cy="158.16" fill="#00D66B" rx="4.26" ry="4.25"/><path stroke="#000" stroke-opacity=".27" stroke-width="2" d="M336.65 126h110.34v98.35H336.65z"/><rect width="112.34" height="3" x="335.65" y="228.75" fill="#000" fill-opacity=".27" rx="1"/><rect width="44.26" height="3" x="335.65" y="233.85" fill="#000" fill-opacity=".27" rx="1"/><path stroke="#BABABA" stroke-width="2" d="M336.5 224.5l110.65-98.65m-110.64 0l110.64 98.65M336.46 350.35l34.03-29m-34.03 0l34.03 29"/><ellipse cx="342.46" cy="254.26" fill="#00D66B" rx="6.81" ry="6.8"/><path fill="#000" d="M343.06 250.86h-.75l-1.55 1.02v.77l1.51-1h.04v5.4h.75v-6.2z"/><rect width="91.92" height="1.7" x="356.08" y="255.96" fill="#000" fill-opacity=".27" rx=".85"/><rect width="73.19" height="1.7" x="356.08" y="279.77" fill="#000" fill-opacity=".27" rx=".85"/><rect width="91.92" height="1.7" x="356.08" y="303.58" fill="#000" fill-opacity=".27" rx=".85"/><rect width="44.26" height="1.7" x="356.08" y="261.06" fill="#000" fill-opacity=".27" rx=".85"/><rect width="44.26" height="1.7" x="356.08" y="308.69" fill="#000" fill-opacity=".27" rx=".85"/><rect width="74.9" height="5.1" x="356.08" y="247.46" fill="#000" fill-opacity=".27" rx="1"/><rect width="40.85" height="5.1" x="356.08" y="271.27" fill="#000" fill-opacity=".27" rx="1"/><rect width="88.51" height="5.1" x="356.08" y="295.08" fill="#000" fill-opacity=".27" rx="1"/><rect width="62.98" height="3.4" x="374.81" y="320.59" fill="#000" fill-opacity=".27" rx="1"/><rect width="52.77" height="3.4" x="374.81" y="327.39" fill="#000" fill-opacity=".27" rx="1"/><rect width="59.58" height="3.4" x="374.81" y="335.9" fill="#000" fill-opacity=".27" rx="1"/><rect width="34.04" height="3.4" x="374.81" y="342.7" fill="#000" fill-opacity=".27" rx="1"/><ellipse cx="342.46" cy="278.07" fill="#00D66B" rx="6.81" ry="6.8"/><path fill="#000" d="M340.76 280.94h3.9v-.67h-2.87v-.04l1.39-1.49c1.06-1.14 1.38-1.67 1.38-2.36 0-.95-.78-1.71-1.86-1.71-1.09 0-1.91.74-1.91 1.82h.7c0-.7.47-1.17 1.18-1.17.67 0 1.19.41 1.19 1.06 0 .57-.34 1-1.06 1.78l-2.04 2.23v.55z"/><ellipse cx="342.46" cy="301.88" fill="#00D66B" rx="6.81" ry="6.8"/><path fill="#000" d="M342.49 305.37c1.2 0 2.09-.75 2.09-1.77 0-.78-.47-1.35-1.25-1.48v-.05a1.4 1.4 0 001.02-1.4c0-.88-.7-1.66-1.84-1.66-1.07 0-1.96.66-2 1.63h.73c.03-.61.62-.97 1.26-.97.68 0 1.12.41 1.12 1.03 0 .66-.5 1.08-1.24 1.08h-.5v.67h.5c.94 0 1.46.47 1.46 1.15 0 .66-.57 1.1-1.36 1.1-.72 0-1.29-.37-1.34-.96h-.76c.05.97.9 1.63 2.1 1.63z"/><path stroke="#BABABA" stroke-width="2" d="M336.65 321.59h33.75v28.61h-33.75z"/><rect width="231.31" height="10.2" x="214" y="77" fill="#000" fill-opacity=".27" rx="2"/><rect width="15" height="10" x="131" y="77" fill="#000" fill-opacity=".27" rx="2"/><rect width="15" height="10" x="531" y="77" fill="#000" fill-opacity=".27" rx="2"/><rect width="15" height="10" x="514" y="77" fill="#000" fill-opacity=".27" rx="2"/><rect width="15" height="10" x="148" y="77" fill="#000" fill-opacity=".27" rx="2"/><rect width="15" height="10" x="548" y="77" fill="#000" fill-opacity=".27" rx="2"/><rect width="27" height="6" x="141" y="100" fill="#000" fill-opacity=".27" rx="1"/><rect width="21" height="6" x="184" y="100" fill="#000" fill-opacity=".27" rx="1"/><rect width="34" height="6" x="221" y="100" fill="#000" fill-opacity=".27" rx="1"/><rect width="29" height="6" x="271" y="100" fill="#000" fill-opacity=".27" rx="1"/><rect width="45" height="6" x="316" y="100" fill="#000" fill-opacity=".27" rx="1"/><rect width="35" height="10" x="469" y="98" fill="#000" fill-opacity=".27" rx="5"/><rect width="45" height="10" x="512" y="98" fill="#00D66B" rx="5"/><path fill="#000" fill-opacity=".27" d="M89 113h482v2H89z"/><path stroke="#000" stroke-opacity=".27" stroke-width="2" d="M104 98h29v10h-29z"/><path stroke="#BABABA" stroke-width="2" d="M105 108l27-10m-27 0l27 10"/><path fill="#000" fill-opacity=".27" d="M163 115h2v240h-2zM496 115h2v240h-2z"/><path stroke="#BABABA" stroke-width="2" d="M505.37 170.56l57.8-49.26m-57.8 0l57.8 49.26"/><rect width="61" height="5" x="504" y="178" fill="#000" fill-opacity=".27" rx="1"/><rect width="51" height="5" x="504" y="188" fill="#000" fill-opacity=".27" rx="1"/><path stroke="#BABABA" stroke-width="2" d="M505 121h58.72v50H505zM505.37 255.56l57.8-49.26m-57.8 0l57.8 49.26"/><rect width="57" height="5" x="504" y="263" fill="#000" fill-opacity=".27" rx="1"/><rect width="42" height="5" x="504" y="273" fill="#000" fill-opacity=".27" rx="1"/><rect width="42" height="2" x="519" y="292" fill="#000" fill-opacity=".27" rx="1"/><path stroke="#BABABA" stroke-width="2" d="M505 206h58.72v50H505z"/><rect width="56" height="5" x="97" y="125" fill="#000" fill-opacity=".27" rx="1"/><rect width="44" height="5" x="97" y="188" fill="#000" fill-opacity=".27" rx="1"/><rect width="44" height="5" x="97" y="146" fill="#000" fill-opacity=".27" rx="1"/><rect width="52" height="5" x="97" y="209" fill="#000" fill-opacity=".27" rx="1"/><rect width="50" height="5" x="97" y="167" fill="#000" fill-opacity=".27" rx="1"/><rect width="39" height="5" x="97" y="230" fill="#000" fill-opacity=".27" rx="1"/><ellipse cx="103.51" cy="340.5" fill="#00D66B" rx="7.51" ry="7.5"/><path fill="#000" d="M107.1 338.74c.35-.26.66-.56.91-.91a3.6 3.6 0 01-1.06.27c.39-.22.67-.56.81-.98-.35.2-.76.35-1.16.44a1.9 1.9 0 00-1.36-.56c-1.02 0-1.85.8-1.85 1.77 0 .14.02.27.05.4a5.45 5.45 0 01-3.82-1.85 1.73 1.73 0 00.58 2.36c-.3-.01-.6-.08-.84-.22v.02c0 .86.63 1.57 1.48 1.74-.15.03-.32.06-.48.06-.12 0-.23-.01-.35-.03.23.7.91 1.21 1.72 1.23-.63.47-1.42.76-2.29.76-.16 0-.3-.02-.44-.03.81.5 1.78.79 2.84.79a5.1 5.1 0 005.25-5.03v-.23z"/><ellipse cx="125.51" cy="340.5" fill="#00D66B" rx="7.51" ry="7.5"/><path fill="#000" d="M127.74 341.5l.2-1.44h-1.3v-.94c0-.4.18-.78.77-.78h.6v-1.23s-.54-.11-1.05-.11c-1.07 0-1.77.7-1.77 1.95v1.11H124v1.44h1.2v3.5h1.45v-3.5h1.1z"/><ellipse cx="147.54" cy="340.5" fill="#00D66B" rx="7.51" ry="7.5"/><path fill="#000" d="M147.55 338.7a1.8 1.8 0 100 3.6 1.8 1.8 0 000-3.6zm0 2.96c-.64 0-1.17-.51-1.17-1.17 0-.64.51-1.15 1.17-1.15.64 0 1.16.51 1.16 1.15 0 .66-.52 1.17-1.16 1.17zm2.28-3.03a.42.42 0 00-.42-.42.42.42 0 00-.42.42.42.42 0 10.84 0zm1.2.43c-.04-.57-.16-1.07-.57-1.47-.4-.41-.9-.53-1.47-.57a45 45 0 00-2.9 0c-.56.04-1.04.16-1.46.57-.41.4-.54.9-.57 1.47-.03.57-.03 2.3 0 2.88.03.57.16 1.05.57 1.47.42.41.9.53 1.47.57a45 45 0 002.89 0 2.12 2.12 0 001.47-.57c.4-.42.53-.9.56-1.47.03-.57.03-2.3 0-2.88zm-.76 3.5c-.1.3-.36.54-.66.67-.47.18-1.56.14-2.06.14-.52 0-1.61.04-2.06-.14a1.19 1.19 0 01-.68-.68c-.18-.45-.14-1.54-.14-2.06 0-.5-.04-1.6.14-2.06.13-.3.36-.53.68-.66.45-.18 1.54-.14 2.06-.14.5 0 1.6-.04 2.06.14.3.11.54.36.66.66.19.47.14 1.56.14 2.06 0 .52.05 1.61-.14 2.06z"/><rect width="26" height="4" x="522" y="101" fill="#000" rx="2"/><rect width="54" height="4" x="303" y="80" fill="#000" rx="2"/><rect width="33" height="15" x="504" y="335" fill="#00D66B" rx="7.5"/><rect width="24" height="15" x="542" y="335" fill="#000" fill-opacity=".27" rx="7.5"/><rect width="18.93" height="5" x="511.57" y="340" fill="#000" rx="2.5"/><rect width="12" height="5" x="548" y="340" fill="#000" rx="2.5"/><rect width="8" height="8" x="504" y="289" fill="#00D66B" rx="2"/><path stroke="#000" stroke-width="2" d="M512.4 289.8l-5.2 5.2-2.4-2.4"/><rect width="42" height="2" x="519" y="306" fill="#000" fill-opacity=".27" rx="1"/><rect width="8" height="8" x="504" y="303" fill="#C4C4C4" rx="2"/><rect width="42" height="2" x="519" y="319" fill="#000" fill-opacity=".27" rx="1"/><rect width="8" height="8" x="504" y="316" fill="#C4C4C4" rx="2"/><path stroke="#000" stroke-width="2" d="M174.29 399.44l-6.79 3.02v-16.92l13.8 10.69-7.01 3.21zM176.52 404l-2.28-4.56"/><path stroke="#00D66B" stroke-width="2" d="M171.5 378.5L169 382M160 385.48l4.24-.71M163.25 377l1.78 3.92"/><path stroke="#000" stroke-width="2" d="M42.5 78.46V61.54l13.8 10.69-7.01 3.21-6.79 3.02zM51.52 80l-2.28-4.56"/><path stroke="#00D66B" stroke-width="2" d="M46.5 54.5L44 58M35 61.47l4.24-.7M38.25 53l1.78 3.92"/><rect width="88" height="90" x="184" y="403" stroke="#00D66B" stroke-width="2" rx="3"/><path fill="#000" fill-opacity=".27" d="M185 456h86v2h-86zM185 438h86v2h-86zM185 474h86v2h-86zM185 420h86v2h-86z"/><rect width="33" height="4" x="207" y="410" fill="#000" fill-opacity=".27" rx="2"/><rect width="39" height="4" x="207" y="446" fill="#000" fill-opacity=".27" rx="2"/><rect width="46" height="4" x="207" y="428" fill="#000" fill-opacity=".27" rx="2"/><rect width="29" height="4" x="207" y="464" fill="#000" fill-opacity=".27" rx="2"/><rect width="48" height="4" x="207" y="482" fill="#000" fill-opacity=".27" rx="2"/><rect width="10" height="10" x="190" y="407" stroke="#000" stroke-opacity=".27" stroke-width="2" rx="5"/><path stroke="#BABABA" stroke-width="2" d="M199 408l-8 8m0-8l8 8"/><rect width="10" height="10" x="190" y="425" stroke="#000" stroke-opacity=".27" stroke-width="2" rx="5"/><path stroke="#BABABA" stroke-width="2" d="M199 426l-8 8m0-8l8 8"/><rect width="10" height="10" x="190" y="443" stroke="#000" stroke-opacity=".27" stroke-width="2" rx="5"/><path stroke="#BABABA" stroke-width="2" d="M199 444l-8 8m0-8l8 8"/><rect width="10" height="10" x="190" y="461" stroke="#000" stroke-opacity=".27" stroke-width="2" rx="5"/><path stroke="#BABABA" stroke-width="2" d="M199 462l-8 8m0-8l8 8"/><rect width="10" height="10" x="190" y="479" stroke="#000" stroke-opacity=".27" stroke-width="2" rx="5"/><path stroke="#BABABA" stroke-width="2" d="M199 480l-8 8m0-8l8 8"/><path stroke="#000" d="M266.3 448l-2.8 2.8v-5.6l2.8 2.8zM266.3 484l-2.8 2.8v-5.6l2.8 2.8z"/><rect width="88" height="54" x="278" y="475" stroke="#00D66B" stroke-width="2" rx="3"/><path fill="#000" fill-opacity=".27" d="M279 510h86v2h-86zM279 492h86v2h-86z"/><rect width="33" height="4" x="301" y="482" fill="#000" fill-opacity=".27" rx="2"/><rect width="39" height="4" x="301" y="518" fill="#000" fill-opacity=".27" rx="2"/><rect width="46" height="4" x="301" y="500" fill="#000" fill-opacity=".27" rx="2"/><rect width="10" height="10" x="284" y="479" stroke="#000" stroke-opacity=".27" stroke-width="2" rx="5"/><path stroke="#BABABA" stroke-width="2" d="M293 480l-8 8m0-8l8 8"/><rect width="10" height="10" x="284" y="497" stroke="#000" stroke-opacity=".27" stroke-width="2" rx="5"/><path stroke="#BABABA" stroke-width="2" d="M293 498l-8 8m0-8l8 8"/><rect width="10" height="10" x="284" y="515" stroke="#000" stroke-opacity=".27" stroke-width="2" rx="5"/><path stroke="#BABABA" stroke-width="2" d="M293 516l-8 8m0-8l8 8"/><rect width="175" height="100" x="397" y="385" stroke="#00D66B" stroke-width="2" rx="3"/><rect width="43" height="15" x="520" y="462" fill="#00D66B" rx="7.5"/><rect width="24.67" height="5" x="529.87" y="467" fill="#000" rx="2.5"/><rect width="39" height="15" x="476" y="462" fill="#000" fill-opacity=".27" rx="7.5"/><rect width="19.5" height="5" x="485.75" y="467" fill="#000" rx="2.5"/><rect width="57" height="9" x="406" y="394" fill="#000" fill-opacity=".27" rx="2"/><path stroke="#000" stroke-linecap="round" stroke-width="3" d="M555 402l7-7M555 395l7 7"/><rect width="152" height="4" x="406" y="414" fill="#000" fill-opacity=".27" rx="2"/><rect width="135" height="4" x="406" y="434" fill="#000" fill-opacity=".27" rx="2"/><rect width="141" height="4" x="406" y="424" fill="#000" fill-opacity=".27" rx="2"/><rect width="62" height="4" x="406" y="444" fill="#000" fill-opacity=".27" rx="2"/><ellipse cx="691" cy="888.5" fill="#00D66B" rx="34" ry="33.5"/><path fill="#fff" stroke="#00D66B" stroke-width="2" d="M670.65 889.29a19.63 19.63 0 0139.27 0V963h-39.27v-73.71z"/><path fill="#BABABA" d="M690.92 891.17c-6.53 0-12.25 3.68-12.25 5.14v.74h23.49v-.74c0-1.46-4.7-5.13-11.24-5.13z"/><path stroke="#000" stroke-width="2" d="M681.04 904.23h17.08M685.3 908.5h8.55M677.77 889.29a12.52 12.52 0 0125.04 0v8.25h-25.04v-8.25z"/><ellipse cx="841" cy="185.5" fill="#00D66B" rx="34" ry="33.5"/><path fill="#fff" stroke="#00D66B" stroke-width="2" d="M859.92 186.29V260h-39.27v-73.71a19.63 19.63 0 0139.27 0z"/><path fill="#BABABA" d="M840.92 188.18c-6.53 0-12.25 3.66-12.25 5.13v.74h23.49v-.74c0-1.47-4.7-5.13-11.24-5.13z"/><path stroke="#000" stroke-width="2" d="M831.04 201.23h17.08M835.3 205.5h8.55M852.8 186.29v8.25h-25.03v-8.25a12.52 12.52 0 0125.04 0z"/><rect width="264" height="118" x="181" y="869" stroke="#00D66B" stroke-width="2" rx="3"/><rect width="120" height="5" x="296" y="918" fill="#000" fill-opacity=".27" rx="2"/><rect width="112" height="5" x="296" y="927" fill="#000" fill-opacity=".27" rx="2"/><rect width="48" height="5" x="296" y="936" fill="#000" fill-opacity=".27" rx="2"/><rect width="94" height="11" x="296.31" y="892.91" fill="#000" fill-opacity=".27" rx="2"/><circle cx="429.49" cy="885.49" r="1.49" fill="#000"/><circle cx="429.49" cy="889.95" r="1.49" fill="#000"/><circle cx="429.49" cy="894.42" r="1.49" fill="#000"/><rect width="40.82" height="5.1" x="296" y="884" fill="#000" fill-opacity=".27" rx="2"/><rect width="26" height="11" x="197" y="960" stroke="#000" stroke-opacity=".27" stroke-width="2" rx="5.5"/><rect width="41" height="11" x="233" y="960" stroke="#000" stroke-opacity=".27" stroke-width="2" rx="5.5"/><rect width="36" height="11" x="284" y="960" stroke="#000" stroke-opacity=".27" stroke-width="2" rx="5.5"/><rect width="31" height="11" x="330" y="960" stroke="#000" stroke-opacity=".27" stroke-width="2" rx="5.5"/><rect width="88" height="65" x="197" y="884" stroke="#BABABA" stroke-width="2" rx="3"/><path stroke="#BABABA" stroke-width="2" d="M283.5 884.49l-85 63.65m0-63.65l85 63.65"/><rect width="67" height="5" x="441" y="762" fill="#000" fill-opacity=".27" rx="2"/><rect width="45" height="5" x="419" y="808" fill="#000" fill-opacity=".27" rx="2"/><rect width="35" height="5" x="637" y="808" fill="#000" fill-opacity=".27" rx="2"/><rect width="28" height="5" x="436" y="819" fill="#000" fill-opacity=".27" rx="2"/><rect width="30" height="5" x="637" y="819" fill="#000" fill-opacity=".27" rx="2"/><rect width="67" height="5" x="597" y="762" fill="#000" fill-opacity=".27" rx="2"/><rect width="67" height="5" x="511" y="837" fill="#000" fill-opacity=".27" rx="2"/><rect width="67" height="5" x="511" y="909" fill="#000" fill-opacity=".27" rx="2"/><rect width="54" height="5" x="441" y="775" fill="#000" fill-opacity=".27" rx="2"/><rect width="54" height="5" x="597" y="775" fill="#000" fill-opacity=".27" rx="2"/><rect width="54" height="5" x="511" y="850" fill="#000" fill-opacity=".27" rx="2"/><rect width="54" height="5" x="511" y="922" fill="#000" fill-opacity=".27" rx="2"/><rect width="67" height="5" x="515" y="684" fill="#000" fill-opacity=".27" rx="2"/><rect width="112" height="28" x="493" y="672" stroke="#00D66B" stroke-width="2" rx="14"/><rect width="51.72" height="5" x="532.75" y="984" fill="#000" fill-opacity=".27" rx="2"/><rect width="86" height="28" x="516" y="972" stroke="#00D66B" stroke-width="2" rx="14"/><path stroke="#BABABA" stroke-dasharray="2 2" stroke-width="2" d="M551.5 701v19.5"/><rect width="97" height="44" x="426" y="748" stroke="#000" stroke-opacity=".27" stroke-width="2" rx="3"/><rect width="97" height="44" x="498" y="824" stroke="#000" stroke-opacity=".27" stroke-width="2" rx="3"/><rect width="97" height="44" x="498" y="896" stroke="#000" stroke-opacity=".27" stroke-width="2" rx="3"/><rect width="97" height="44" x="582" y="748" stroke="#000" stroke-opacity=".27" stroke-width="2" rx="3"/><path fill="#BABABA" d="M472 747l5.77-10h-11.54l5.77 10zm0-25v-1h-1v1h1zm158 0h1v-1h-1v1zm0 25l5.77-10h-11.54l5.77 10zm-157-3.13v-2.08h-2v2.09h2zm0-4.16v-2.09h-2v2.09h2zm0-4.17v-2.08h-2v2.08h2zm0-4.16v-2.09h-2v2.09h2zm0-4.17v-2.09h-2v2.09h2zm0-4.17V722h-2v1.04h2zm-1-.04h.99v-2H472v2zm2.96 0h1.98v-2h-1.98v2zm3.95 0h1.98v-2h-1.98v2zm3.95 0h1.98v-2h-1.98v2zm3.95 0h1.98v-2h-1.98v2zm3.95 0h1.98v-2h-1.98v2zm3.95 0h1.98v-2h-1.98v2zm3.95 0h1.98v-2h-1.98v2zm3.95 0h1.98v-2h-1.98v2zm3.95 0h1.98v-2h-1.98v2zm3.95 0h1.98v-2h-1.98v2zm3.95 0h1.98v-2h-1.98v2zm3.95 0h1.98v-2h-1.98v2zm3.95 0h1.98v-2h-1.98v2zm3.95 0h1.98v-2h-1.98v2zm3.95 0h1.98v-2h-1.98v2zm3.95 0h1.98v-2h-1.98v2zm3.95 0h1.98v-2h-1.98v2zm3.95 0h1.98v-2h-1.98v2zm3.95 0h1.98v-2h-1.98v2zm3.95 0H552v-2H550v2zm3.95 0h1.98v-2h-1.98v2zm3.95 0h1.98v-2h-1.98v2zm3.95 0h1.98v-2h-1.98v2zm3.95 0h1.98v-2h-1.98v2zm3.95 0h1.98v-2h-1.98v2zm3.95 0h1.98v-2h-1.98v2zm3.95 0h1.98v-2h-1.98v2zm3.95 0h1.98v-2h-1.98v2zm3.95 0h1.98v-2h-1.98v2zm3.95 0h1.98v-2h-1.98v2zm3.95 0h1.98v-2h-1.98v2zm3.95 0h1.98v-2h-1.98v2zm3.95 0h1.98v-2h-1.98v2zm3.95 0h1.98v-2h-1.98v2zm3.95 0h1.98v-2h-1.98v2zm3.95 0h1.98v-2h-1.98v2zm3.95 0h1.98v-2h-1.98v2zm3.95 0h1.98v-2h-1.98v2zm3.95 0h1.98v-2h-1.98v2zm3.95 0h.99v-2h-.99v2zm-.01-1v1.04h2V722h-2zm0 3.13v2.08h2v-2.09h-2zm0 4.16v2.09h2v-2.09h-2zm0 4.17v2.08h2v-2.08h-2zm0 4.16v2.09h2v-2.09h-2zm0 4.17v2.09h2v-2.09h-2zM630 846v1h1v-1h-1zm-34 0l10 5.77v-11.54L596 846zm2.83 1h1.9v-2h-1.9v2zm3.78 0h1.89v-2h-1.89v2zm3.78 0h1.89v-2h-1.9v2zm3.78 0h1.89v-2h-1.9v2zm3.77 0h1.9v-2h-1.9v2zm3.78 0h1.9v-2h-1.9v2zm3.78 0h1.89v-2h-1.89v2zm3.78 0h1.89v-2h-1.9v2zm3.78 0h.94v-2h-.94v2zm1.94-1v-1.02h-2V846h2zm0-3.06v-2.04h-2v2.04h2zm0-4.08v-2.03h-2v2.03h2zm0-4.07v-2.04h-2v2.04h2zm0-4.08v-2.04h-2v2.04h2zm0-4.08v-2.03h-2v2.03h2zm0-4.07v-2.04h-2v2.04h2zm0-4.08v-2.04h-2v2.04h2zm0-4.08v-2.03h-2v2.03h2zm0-4.07v-2.04h-2v2.04h2zm0-4.08v-2.04h-2v2.04h2zm0-4.08v-2.03h-2v2.03h2zm0-4.07v-2.04h-2v2.04h2zm0-4.08V793h-2v1.02h2zM472 987v1h-1v-1h1zm43 0l-10 5.77v-11.54l10 5.77zm-2.93 1h-1.96v-2h1.96v2zm-3.91 0h-1.96v-2h1.96v2zm-3.91 0h-1.95v-2h1.95v2zm-3.9 0h-1.96v-2h1.95v2zm-3.92 0h-1.95v-2h1.95v2zm-3.9 0h-1.96v-2h1.95v2zm-3.92 0h-1.95v-2h1.95v2zm-3.9 0h-1.96v-2h1.95v2zm-3.91 0h-1.96v-2h1.96v2zm-3.91 0h-1.96v-2h1.96v2zm-3.91 0H472v-2h.98v2zm-1.98-1v-.99h2v.99h-2zm0-2.97v-1.98h2v1.98h-2zm0-3.96v-1.98h2v1.98h-2zm0-3.96v-1.98h2v1.98h-2zm0-3.96v-1.98h2v1.98h-2zm0-3.96v-1.98h2v1.98h-2zm0-3.96v-1.98h2v1.99h-2zm0-3.95v-1.98h2v1.98h-2zm0-3.96v-1.98h2v1.98h-2zm0-3.96v-1.98h2v1.98h-2zm0-3.96v-1.98h2v1.98h-2zm0-3.96v-1.98h2v1.98h-2zm0-3.96v-1.98h2v1.98h-2zm0-3.96v-1.98h2v1.98h-2zm0-3.96v-1.98h2v1.98h-2zm0-3.96v-1.98h2v1.98h-2zm0-3.96v-1.98h2v1.98h-2zm0-3.96v-1.98h2v1.98h-2zm0-3.96v-1.98h2v1.98h-2zm0-3.96v-1.97h2v1.98h-2zm0-3.95v-1.98h2v1.98h-2zm0-3.96v-1.98h2v1.98h-2zm0-3.96v-1.98h2v1.98h-2zm0-3.96v-1.98h2v1.98h-2zm0-3.96v-1.98h2v1.98h-2zm0-3.96v-1.98h2v1.98h-2zm0-3.96v-1.98h2v1.98h-2zm0-3.96v-1.98h2v1.98h-2zm0-3.96v-1.98h2v1.98h-2zm0-3.96v-1.98h2v1.98h-2zm0-3.96v-1.98h2v1.98h-2zm0-3.96v-1.97h2v1.98h-2zm0-3.95v-1.98h2v1.98h-2zm0-3.96v-1.98h2v1.98h-2zm0-3.96v-1.98h2v1.98h-2zm0-3.96v-1.98h2v1.98h-2zm0-3.96v-1.98h2v1.98h-2zm0-3.96v-1.98h2v1.98h-2zm0-3.96v-1.98h2v1.98h-2zm0-3.96v-1.98h2v1.98h-2zm0-3.96v-1.98h2v1.98h-2zm0-3.96v-1.98h2v1.98h-2zm0-3.96v-1.98h2v1.98h-2zm0-3.96v-1.98h2v1.99h-2zm0-3.95v-1.98h2v1.98h-2zm0-3.96v-1.98h2v1.98h-2zm0-3.96v-1.98h2v1.98h-2zm0-3.96v-1.98h2v1.98h-2zm0-3.96v-1.98h2v1.98h-2zm0-3.96V793h2v.99h-2z"/><path fill="#BABABA" d="M630 919v1h1v-1h-1zm-34 0l10 5.77v-11.54L596 919zm2.83 1h1.9v-2h-1.9v2zm3.78 0h1.89v-2h-1.89v2zm3.78 0h1.89v-2h-1.9v2zm3.78 0h1.89v-2h-1.9v2zm3.77 0h1.9v-2h-1.9v2zm3.78 0h1.9v-2h-1.9v2zm3.78 0h1.89v-2h-1.89v2zm3.78 0h1.89v-2h-1.9v2zm3.78 0h.94v-2h-.94v2zm1.94-1v-1.01h-2V919h2zm0-3.04v-2.03h-2v2.03h2zm0-4.06v-2.02h-2v2.02h2zm0-4.05v-2.03h-2v2.03h2zm0-4.06v-2.03h-2v2.03h2zm0-4.05v-2.03h-2v2.03h2zm0-4.06v-2.03h-2v2.03h2zm0-4.05v-2.03h-2v2.02h2zm0-4.06v-2.03h-2v2.03h2zm0-4.06v-2.02h-2v2.02h2zm0-4.05v-2.03h-2v2.03h2zm0-4.06v-2.02h-2v2.02h2zm0-4.05v-2.03h-2v2.03h2zm0-4.06v-2.03h-2v2.03h2zm0-4.05v-2.03h-2v2.03h2zm0-4.06v-2.03h-2v2.03h2zm0-4.05v-2.03h-2v2.02h2zm0-4.06v-2.03h-2v2.03h2zm0-4.06V846h-2v1.01h2z"/><rect width="363" height="279" x="695" y="539" stroke="#00D66B" stroke-width="2" rx="3"/><path stroke="#000" stroke-width="2" d="M1020.5 555.25a3.25 3.25 0 11-6.5.01 3.25 3.25 0 016.5 0zM1019.8 557.8l3.4 3.4"/><circle cx="1040.69" cy="551.49" r="1.49" fill="#000"/><circle cx="1040.69" cy="555.95" r="1.49" fill="#000"/><circle cx="1040.69" cy="560.42" r="1.49" fill="#000"/><rect width="81" height="11" x="707" y="550" stroke="#000" stroke-opacity=".27" stroke-width="2" rx="1"/><rect width="198" height="18" x="820" y="788" stroke="#000" stroke-opacity=".27" stroke-width="2" rx="9"/><rect width="33" height="3" x="731" y="554" fill="#000" rx="1.5"/><circle cx="712.8" cy="600.8" r="6.8" fill="#00D66B"/><g clip-path="url(#clip5)"><path stroke="#fff" stroke-width="2" d="M717 607.49c0 2.22-1.8 4.02-4 4.02s-4-1.8-4-4.02c0-2.23 1.8-4.03 4-4.03s4 1.8 4 4.03zM715 599.01a2 2 0 01-2 2.02 2 2 0 01-2-2.01 2 2 0 012-2.02 2 2 0 012 2.01z"/></g><rect width="45" height="3" x="726" y="604" fill="#000" fill-opacity=".27" rx="1.5"/><rect width="63" height="5" x="726" y="595" fill="#000" fill-opacity=".27" rx="2"/><rect width="48" height="8" x="706" y="578" fill="#000" fill-opacity=".27" rx="2"/><rect width="61" height="8" x="706" y="687" fill="#000" fill-opacity=".27" rx="2"/><circle cx="825.8" cy="555.8" r="6.8" fill="#00D66B"/><g clip-path="url(#clip6)"><path stroke="#fff" stroke-width="2" d="M830 562.49c0 2.22-1.8 4.02-4 4.02s-4-1.8-4-4.02c0-2.23 1.8-4.03 4-4.03s4 1.8 4 4.03zM828 554.01a2 2 0 01-2 2.02 2 2 0 01-2-2.01 2 2 0 012-2.02 2 2 0 012 2.01z"/></g><rect width="45" height="3" x="839" y="559" fill="#000" fill-opacity=".27" rx="1.5"/><rect width="63" height="5" x="839" y="550" fill="#000" fill-opacity=".27" rx="2"/><circle cx="712.8" cy="631.8" r="6.8" fill="#00D66B"/><g clip-path="url(#clip7)"><path stroke="#fff" stroke-width="2" d="M717 638.49c0 2.22-1.8 4.02-4 4.02s-4-1.8-4-4.02c0-2.23 1.8-4.03 4-4.03s4 1.8 4 4.03zM715 630.01a2 2 0 01-2 2.02 2 2 0 01-2-2.01 2 2 0 012-2.02 2 2 0 012 2.01z"/></g><rect width="56" height="3" x="726" y="635" fill="#000" fill-opacity=".27" rx="1.5"/><rect width="43" height="5" x="726" y="626" fill="#000" fill-opacity=".27" rx="2"/><circle cx="712.8" cy="662.8" r="6.8" fill="#00D66B"/><g clip-path="url(#clip8)"><path stroke="#fff" stroke-width="2" d="M717 669.49c0 2.22-1.8 4.02-4 4.02s-4-1.8-4-4.02c0-2.23 1.8-4.03 4-4.03s4 1.8 4 4.03zM715 661.01a2 2 0 01-2 2.02 2 2 0 01-2-2.01 2 2 0 012-2.02 2 2 0 012 2.01z"/></g><rect width="28" height="3" x="726" y="666" fill="#000" fill-opacity=".27" rx="1.5"/><rect width="59" height="5" x="726" y="657" fill="#000" fill-opacity=".27" rx="2"/><circle cx="712.8" cy="709.8" r="6.8" fill="#00D66B"/><g clip-path="url(#clip9)"><path stroke="#fff" stroke-width="2" d="M717 716.49c0 2.22-1.8 4.02-4 4.02s-4-1.8-4-4.02c0-2.23 1.8-4.03 4-4.03s4 1.8 4 4.03zM715 708.01a2 2 0 01-2 2.02 2 2 0 01-2-2.01 2 2 0 012-2.02 2 2 0 012 2.01z"/></g><rect width="45" height="3" x="726" y="713" fill="#000" fill-opacity=".27" rx="1.5"/><rect width="63" height="5" x="726" y="704" fill="#000" fill-opacity=".27" rx="2"/><circle cx="712.8" cy="740.8" r="6.8" fill="#00D66B"/><g clip-path="url(#clip10)"><path stroke="#fff" stroke-width="2" d="M717 747.49c0 2.22-1.8 4.02-4 4.02s-4-1.8-4-4.02c0-2.23 1.8-4.03 4-4.03s4 1.8 4 4.03zM715 739.01a2 2 0 01-2 2.02 2 2 0 01-2-2.01 2 2 0 012-2.02 2 2 0 012 2.01z"/></g><rect width="30" height="3" x="726" y="744" fill="#000" fill-opacity=".27" rx="1.5"/><rect width="45" height="5" x="726" y="735" fill="#000" fill-opacity=".27" rx="2"/><circle cx="712.8" cy="771.8" r="6.8" fill="#00D66B"/><g clip-path="url(#clip11)"><path stroke="#fff" stroke-width="2" d="M717 778.49c0 2.22-1.8 4.02-4 4.02s-4-1.8-4-4.02c0-2.23 1.8-4.03 4-4.03s4 1.8 4 4.03zM715 770.01a2 2 0 01-2 2.02 2 2 0 01-2-2.01 2 2 0 012-2.02 2 2 0 012 2.01z"/></g><rect width="55" height="3" x="726" y="775" fill="#000" fill-opacity=".27" rx="1.5"/><rect width="63" height="5" x="726" y="766" fill="#000" fill-opacity=".27" rx="2"/><circle cx="712.8" cy="802.8" r="6.8" fill="#00D66B"/><g clip-path="url(#clip12)"><path stroke="#fff" stroke-width="2" d="M717 809.49c0 2.22-1.8 4.02-4 4.02s-4-1.8-4-4.02c0-2.23 1.8-4.03 4-4.03s4 1.8 4 4.03zM715 801.01a2 2 0 01-2 2.02 2 2 0 01-2-2.01 2 2 0 012-2.02 2 2 0 012 2.01z"/></g><rect width="45" height="3" x="726" y="806" fill="#000" fill-opacity=".27" rx="1.5"/><rect width="53" height="5" x="726" y="797" fill="#000" fill-opacity=".27" rx="2"/><path fill="#BABABA" d="M819 584c0-1.1.9-2 2-2h74a8 8 0 010 16h-68a8 8 0 01-8-8v-6zM819 686c0-1.1.9-2 2-2h46a8 8 0 010 16h-40a8 8 0 01-8-8v-6zM819 746c0-1.1.9-2 2-2h140a8 8 0 018 8v12a8 8 0 01-8 8H827a8 8 0 01-8-8v-18z"/><path fill="#00D66B" d="M893 716a8 8 0 018-8h140a2 2 0 012 2v18a8 8 0 01-8 8H901a8 8 0 01-8-8v-12z"/><rect width="20" height="20" x="1023" y="787" fill="#00D66B" rx="10"/><path stroke="#000" d="M1029 800.77V793l9 3.68-9 4.1zM1029 796.68h8.18"/><path fill="#00D66B" d="M924 668a8 8 0 018-8h103a8 8 0 110 16H932a8 8 0 01-8-8zM987 650a8 8 0 018-8h40a8 8 0 110 16h-40a8 8 0 01-8-8zM946 632a8 8 0 018-8h87a2 2 0 012 2v6a8 8 0 01-8 8h-81a8 8 0 01-8-8z"/><rect width="124" height="16" x="819" y="600" fill="#BABABA" rx="8"/><circle cx="829.5" cy="780.5" r="2.5" fill="#BABABA"/><circle cx="836.5" cy="780.5" r="2.5" fill="#BABABA"/><circle cx="843.5" cy="780.5" r="2.5" fill="#BABABA"/><path stroke="#000" d="M982.5 795.17h9v5.67h-9z"/><circle cx="987" cy="798" r="1.17" stroke="#000"/><path fill="#000" d="M984.5 793h5v.83h-5z"/><path stroke="#000" d="M1000.5 793.5h8v7.18h-8z"/><path stroke="#000" d="M1000.41 798.32l2.45-2.87 4.5 5.32M1008.59 798.32l-1.64-2.05-1.63 1.64"/><path fill="#000" fill-opacity=".27" d="M801 540h2v277h-2z"/><rect width="70" height="9" x="466" y="526" fill="#00D66B" rx="2"/><rect width="143" height="4" x="516" y="544" fill="#000" fill-opacity=".27" rx="2"/><rect width="127" height="4" x="516" y="568" fill="#000" fill-opacity=".27" rx="2"/><rect width="117" height="4" x="516" y="592" fill="#000" fill-opacity=".27" rx="2"/><rect width="112" height="4" x="516" y="556" fill="#000" fill-opacity=".27" rx="2"/><rect width="96" height="4" x="516" y="580" fill="#000" fill-opacity=".27" rx="2"/><rect width="58" height="4" x="516" y="604" fill="#000" fill-opacity=".27" rx="2"/><rect width="24.67" height="8" x="630.12" y="624" fill="#00D66B" rx="4"/><rect width="19.5" height="8" x="586" y="624" fill="#00D66B" rx="4"/><rect width="19.5" height="8" x="467" y="624" fill="#000" fill-opacity=".27" rx="4"/><path stroke="#00D66B" stroke-linecap="round" stroke-width="3" d="M652 534l7-7M652 527l7 7"/><rect width="214" height="130" x="455" y="514" stroke="#BABABA" stroke-width="2" rx="3"/><path stroke="#BABABA" stroke-width="2" d="M465.74 583.17l39.52-39.34m-39.52 0l39.52 39.34M466 544h39v39h-39z"/><path fill="#000" fill-opacity=".27" d="M275.5 448.5l10 5.77v-11.54l-10 5.77zm115-43l-10-5.77v11.54l10-5.77zm-111.95 44h2.04v-2h-2.04v2zm4.07 0h2.04v-2h-2.04v2zm4.08 0h2.03v-2h-2.03v2zm4.07 0h2.03v-2h-2.03v2zm4.07 0h2.04v-2h-2.04v2zm4.07 0h2.04v-2h-2.04v2zm4.07 0H304v-2h-1.02v2zm1.02 0c.33 0 .66-.03.98-.1l-.4-1.96c-.18.04-.38.06-.58.06v2zm2.78-.84a5.02 5.02 0 001.38-1.38l-1.67-1.11a3 3 0 01-.82.82l1.1 1.67zm2.13-3.19c.06-.31.09-.64.09-.97h-2c0 .2-.02.4-.06.59l1.96.39zm.09-.97v-.97h-2v.97h2zm0-2.92v-1.94h-2v1.94h2zm0-3.89v-1.94h-2v1.94h2zm0-3.88v-1.95h-2v1.95h2zm0-3.9v-1.94h-2v1.95h2zm0-3.88v-1.95h-2v1.95h2zm0-3.9v-1.94h-2v1.95h2zm0-3.88v-1.94h-2v1.94h2zm0-3.89v-1.94h-2v1.94h2zm0-3.89v-.97h-2v.97h2zm0-.97c0-.2.02-.4.06-.59l-1.96-.39c-.07.32-.1.65-.1.98h2zm.5-1.67a3 3 0 01.83-.82l-1.1-1.67c-.55.37-1.02.84-1.39 1.38l1.67 1.11zm1.91-1.27c.2-.04.39-.06.59-.06v-2c-.33 0-.66.03-.98.1l.4 1.96zm.59-.06h.98v-2H312v2zm2.94 0h1.97v-2h-1.97v2zm3.93 0h1.96v-2h-1.96v2zm3.92 0h1.97v-2h-1.97v2zm3.93 0h1.96v-2h-1.96v2zm3.92 0h1.97v-2h-1.97v2zm3.93 0h1.96v-2h-1.96v2zm3.92 0h1.97v-2h-1.97v2zm3.93 0h1.96v-2h-1.96v2zm3.92 0h1.97v-2h-1.97v2zm3.93 0h1.96v-2h-1.96v2zm3.92 0h1.97v-2h-1.97v2zm3.93 0h1.96v-2h-1.96v2zm3.92 0h1.97v-2h-1.97v2zm3.93 0h1.96v-2h-1.96v2zm3.92 0h1.97v-2h-1.97v2zm3.93 0h1.96v-2h-1.96v2zm3.92 0h1.97v-2h-1.97v2zm3.93 0h1.96v-2h-1.96v2zm3.92 0h1.97v-2h-1.97v2z"/><rect width="27" height="16" x="328" y="398" fill="#fff" stroke="#BABABA" stroke-width="2" rx="3"/><path fill="#000" d="M338.98 410l.72-2.15h3.28l.73 2.15h1.69l-3.08-8.73h-1.95l-3.08 8.73h1.7zm1.15-3.42l1.18-3.52h.07l1.18 3.52h-2.43z"/><path fill="#000" fill-opacity=".27" d="M450 540l-10-5.77v11.54l10-5.77zm-144.5-90.5h1v-2h-1v2zm3 0h2v-2h-2v2zm4 0h2v-2h-2v2zm4 0h2v-2h-2v2zm4 0h2v-2h-2v2zm4 0h2v-2h-2v2zm4 0h2v-2h-2v2zm4 0h2v-2h-2v2zm4 0h2v-2h-2v2zm4 0h2v-2h-2v2zm4 0h2v-2h-2v2zm4 0h2v-2h-2v2zm4 0h2v-2h-2v2zm4 0h2v-2h-2v2zm4 0h2v-2h-2v2zm4 0h2v-2h-2v2zm4 0h2v-2h-2v2zm4 0h2v-2h-2v2zm4 0h1v-2h-1v2zm1 0c.2 0 .4.02.59.06l.39-1.96c-.32-.07-.65-.1-.98-.1v2zm1.67.5a3 3 0 01.82.83l1.67-1.1a5.02 5.02 0 00-1.38-1.39l-1.11 1.67zm1.27 1.91c.04.2.06.39.06.59h2c0-.33-.03-.66-.1-.98l-1.96.4zm.06.59v1h2v-1h-2zm0 2.98v1.99h2v-1.99h-2zm0 3.98v1.99h2v-2h-2zm0 3.98v1.98h2v-1.99h-2zm0 3.97v1.99h2v-1.99h-2zm0 3.98v1.99h2v-2h-2zm0 3.97v2h2v-2h-2zm0 3.98v1.99h2v-2h-2zm0 3.98v1.98h2v-1.99h-2zm0 3.97v1.99h2v-1.99h-2zm0 3.98v1.99h2v-2h-2zm0 3.97v2h2v-2h-2zm0 3.98v1.99h2v-1.99h-2zm0 3.98v1.99h2v-2h-2zm0 3.97v2h2v-2h-2zm0 3.98v1.99h2v-2h-2zm0 3.98v1.98h2v-1.99h-2zm0 3.97v1.99h2v-1.99h-2zm0 3.98v1.99h2v-2h-2zm0 3.97v2h2v-2h-2zm0 3.98v1.99h2v-1.99h-2zm0 3.98v.99h2v-1h-2zm0 .99c0 .33.03.66.1.98l1.96-.4a3.05 3.05 0 01-.06-.58h-2zm.84 2.78c.37.54.84 1.01 1.38 1.38l1.11-1.66a3 3 0 01-.82-.83l-1.67 1.1zm3.19 2.13c.31.06.64.09.97.09v-2c-.2 0-.4-.02-.59-.06l-.39 1.96zm.97.09h1v-2h-1v2zm3.02 0h2.02v-2h-2.02v2zm4.04 0h2.01v-2h-2.01v2zm4.03 0h2.01v-2h-2.01v2zm4.03 0h2.01v-2h-2.01v2zm4.03 0h2.01v-2h-2.01v2zm4.03 0h2.01v-2h-2.01v2zm4.03 0h2.02v-2h-2.02v2zm4.03 0h2.02v-2h-2.02v2zm4.03 0h2.02v-2h-2.02v2zm4.04 0h2.01v-2h-2.01v2zm4.03 0h2.01v-2h-2.01v2zm4.03 0h2.01v-2h-2.01v2zm4.03 0h2.01v-2h-2.01v2zm4.03 0h2.01v-2h-2.01v2zm4.03 0h2.02v-2h-2.02v2z"/><rect width="27" height="16" x="401" y="531" fill="#fff" stroke="#BABABA" stroke-width="2" rx="3"/><path fill="#000" d="M410.86 543h3.53c2 0 2.98-1.02 2.98-2.38 0-1.32-.94-2.1-1.86-2.14v-.09c.85-.2 1.52-.8 1.52-1.85 0-1.3-.94-2.27-2.83-2.27h-3.34V543zm1.58-1.32v-2.56h1.75c.97 0 1.58.6 1.58 1.38 0 .7-.48 1.18-1.63 1.18h-1.7zm0-3.7v-2.4h1.6c.93 0 1.41.49 1.41 1.16 0 .77-.62 1.24-1.44 1.24h-1.57z"/><rect width="222" height="32" x="19" y="502" fill="#00D66B" rx="16"/><path stroke="#000" stroke-width="2" d="M81 519.1l3.48 4.9L93 512"/><rect width="74" height="8" x="102" y="514" fill="#000" rx="4"/><rect width="220" height="30" x="20" y="553" fill="#fff" stroke="#00D66B" stroke-width="2" rx="15"/><rect width="60" height="6" x="112" y="565" fill="#000" rx="3"/><path stroke="#000" stroke-width="2" d="M89 560h15v15H89v-15z"/><path stroke="#000" stroke-width="2" d="M92 560h9v5h-9v-5z"/><circle cx="96.75" cy="570.25" r="2.25" stroke="#000" stroke-width="2"/><rect width="59.03" height="29.98" x="182.03" y="599" fill="#BABABA" rx="14.99"/><g filter="url(#filter0_dd)"><rect width="26.24" height="26.24" x="183.91" y="600.87" fill="#fff" rx="13.12"/></g><rect width="59.03" height="29.98" x="112" y="599" fill="#00D66B" rx="14.99"/><g filter="url(#filter1_dd)"><rect width="26.24" height="26.24" x="142.92" y="600.87" fill="#fff" rx="13.12"/></g><rect width="220" height="30" x="20" y="643" stroke="#000" stroke-opacity=".27" stroke-width="2" rx="3"/><rect width="86" height="8" x="31" y="654" fill="#000" rx="4"/><path stroke="#000" stroke-width="2" d="M223 660.59l-5.59-5.59h11.18l-5.59 5.59z"/><rect width="220" height="30" x="20" y="688" stroke="#000" stroke-opacity=".27" stroke-width="2" rx="3"/><rect width="12" height="12" x="54" y="697" fill="#000" rx="6"/><rect width="12" height="12" x="70" y="697" fill="#000" rx="6"/><rect width="12" height="12" x="86" y="697" fill="#000" rx="6"/><rect width="12" height="12" x="102" y="697" fill="#000" rx="6"/><rect width="12" height="12" x="118" y="697" fill="#000" rx="6"/><rect width="12" height="12" x="134" y="697" fill="#000" rx="6"/><rect width="12" height="12" x="150" y="697" fill="#000" rx="6"/><path stroke="#000" stroke-width="2" d="M224 699c-5.5 0-8.98 5-8.98 5s3.48 5 8.98 5c6.5 0 8.5-5 8.5-5s-3-5-8.5-5z"/><circle cx="224" cy="704" r="3" stroke="#000" stroke-width="2"/><circle cx="42.5" cy="703" r="3" stroke="#000" stroke-width="2"/><path stroke="#000" stroke-width="2" d="M40 703h-5.5m-3.5 3.5V703h3.5m0 0v3.5"/><rect width="222" height="32" x="811" y="282" fill="#00D66B" rx="16"/><path stroke="#000" stroke-width="2" d="M873 299.1l3.48 4.9 8.52-12"/><rect width="74" height="8" x="894" y="294" fill="#000" rx="4"/><rect width="220" height="30" x="812" y="333" fill="#fff" stroke="#00D66B" stroke-width="2" rx="15"/><rect width="60" height="6" x="904" y="345" fill="#000" rx="3"/><path stroke="#000" stroke-width="2" d="M881 340h15v15h-15v-15z"/><path stroke="#000" stroke-width="2" d="M884 340h9v5h-9v-5z"/><circle cx="888.75" cy="350.25" r="2.25" stroke="#000" stroke-width="2"/><rect width="59.03" height="29.98" x="974.03" y="379" fill="#BABABA" rx="14.99"/><g filter="url(#filter2_dd)"><rect width="26.24" height="26.24" x="975.91" y="380.87" fill="#fff" rx="13.12"/></g><rect width="59.03" height="29.98" x="904" y="379" fill="#00D66B" rx="14.99"/><g filter="url(#filter3_dd)"><rect width="26.24" height="26.24" x="934.92" y="380.87" fill="#fff" rx="13.12"/></g><rect width="220" height="30" x="812" y="423" stroke="#000" stroke-opacity=".27" stroke-width="2" rx="3"/><rect width="86" height="8" x="823" y="434" fill="#000" rx="4"/><path stroke="#000" stroke-width="2" d="M1009.41 435h11.18l-5.59 5.59-5.59-5.59z"/><rect width="220" height="30" x="812" y="468" stroke="#000" stroke-opacity=".27" stroke-width="2" rx="3"/><rect width="12" height="12" x="846" y="477" fill="#000" rx="6"/><rect width="12" height="12" x="862" y="477" fill="#000" rx="6"/><rect width="12" height="12" x="878" y="477" fill="#000" rx="6"/><rect width="12" height="12" x="894" y="477" fill="#000" rx="6"/><rect width="12" height="12" x="910" y="477" fill="#000" rx="6"/><rect width="12" height="12" x="926" y="477" fill="#000" rx="6"/><rect width="12" height="12" x="942" y="477" fill="#000" rx="6"/><path stroke="#000" stroke-width="2" d="M1016 479c-5.5 0-8.98 5-8.98 5s3.48 5 8.98 5c6.5 0 8.5-5 8.5-5s-3-5-8.5-5z"/><circle cx="1016" cy="484" r="3" stroke="#000" stroke-width="2"/><circle cx="834.5" cy="483" r="3" stroke="#000" stroke-width="2"/><path stroke="#000" stroke-width="2" d="M832 483h-5.5m-3.5 3.5V483h3.5m0 0v3.5"/><rect width="135" height="282" x="264" y="560" stroke="#00D66B" stroke-width="2" rx="14"/><path stroke="#00D66B" stroke-width="2" d="M268 583.6c0-3.1 0-5.36.15-7.14.14-1.78.42-2.99.94-4a10 10 0 014.37-4.37c1.01-.52 2.22-.8 4-.94 1.78-.15 4.04-.15 7.14-.15h93.8c3.1 0 5.36 0 7.14.15 1.78.14 2.99.42 4 .94a10 10 0 014.37 4.37c.52 1.01.8 2.22.94 4 .15 1.78.15 4.04.15 7.14V810c0 4.22 0 7.32-.2 9.77-.2 2.44-.6 4.15-1.33 5.59a14 14 0 01-6.11 6.11c-1.44.74-3.15 1.13-5.59 1.33-2.45.2-5.55.2-9.77.2h-81c-4.22 0-7.32 0-9.77-.2-2.44-.2-4.15-.6-5.59-1.33a14 14 0 01-6.11-6.11c-.74-1.44-1.13-3.15-1.33-5.59-.2-2.45-.2-5.55-.2-9.77V583.6z"/><circle cx="277" cy="576" r="3" stroke="#00D66B" stroke-width="2"/><rect width="40" height="8" x="293" y="586" fill="#000" fill-opacity=".27" rx="4"/><path stroke="#000" stroke-width="2" d="M372.33 589.17a3.17 3.17 0 11-6.33 0 3.17 3.17 0 016.33 0zM371.67 591.67L375 595"/><circle cx="384.99" cy="585.49" r="1.49" fill="#000"/><circle cx="384.99" cy="589.95" r="1.49" fill="#000"/><circle cx="384.99" cy="594.42" r="1.49" fill="#000"/><path stroke="#000" stroke-width="2" d="M280 585l-5 5 5 5M275 590h10"/><rect width="68" height="8" x="307" y="612" fill="#000" fill-opacity=".27" rx="4"/><rect width="77" height="5" x="307" y="624" fill="#000" fill-opacity=".27" rx="2.5"/><rect width="65" height="5" x="307" y="633" fill="#000" fill-opacity=".27" rx="2.5"/><rect width="28" height="28" x="273" y="612" fill="#000" fill-opacity=".27" rx="6"/><rect width="68" height="8" x="307" y="648" fill="#000" fill-opacity=".27" rx="4"/><rect width="52" height="5" x="307" y="660" fill="#000" fill-opacity=".27" rx="2.5"/><rect width="77" height="5" x="307" y="669" fill="#000" fill-opacity=".27" rx="2.5"/><rect width="28" height="28" x="273" y="648" fill="#000" fill-opacity=".27" rx="6"/><path fill="#000" fill-opacity=".27" d="M307 688a4 4 0 014-4h50a4 4 0 010 8h-50a4 4 0 01-4-4z"/><rect width="72" height="5" x="307" y="696" fill="#000" fill-opacity=".27" rx="2.5"/><rect width="48" height="5" x="307" y="705" fill="#000" fill-opacity=".27" rx="2.5"/><rect width="28" height="28" x="273" y="684" fill="#000" fill-opacity=".27" rx="6"/><rect width="117" height="60" x="273" y="730" fill="#000" fill-opacity=".27" rx="6"/><rect width="19.5" height="8" x="273" y="798" fill="#00D66B" rx="4"/><rect width="36" height="8" x="297" y="798" fill="#00D66B" rx="4"/><rect width="25" height="25" x="363" y="795" fill="#00D66B" rx="12"/><path stroke="#000" stroke-width="2" d="M375.5 802v11M370 807.5h11"/><path stroke="#fff" stroke-width="2" d="M279 791l41.5-41 41.5 41"/><path stroke="#fff" stroke-width="2" d="M340 770.1l14.07-14.1L389 791"/><path fill="#C4C4C4" d="M269 720h125v2H269z"/><circle cx="291.5" cy="747.5" r="8.5" stroke="#fff" stroke-width="2"/><defs><clipPath id="clip0"><path fill="#fff" d="M656.5 422.65h10.05v11.06H656.5z"/></clipPath><clipPath id="clip1"><path fill="#fff" d="M635 343h10v13h-10v-13z"/></clipPath><clipPath id="clip2"><path fill="#fff" d="M635 369h10v13h-10z"/></clipPath><clipPath id="clip3"><path fill="#fff" d="M635 395h10v13h-10z"/></clipPath><clipPath id="clip4"><path fill="#fff" d="M758 212h12v72h-12z"/></clipPath><clipPath id="clip5"><path fill="#fff" d="M708 596h10v13h-10z"/></clipPath><clipPath id="clip6"><path fill="#fff" d="M821 551h10v13h-10z"/></clipPath><clipPath id="clip7"><path fill="#fff" d="M708 627h10v13h-10z"/></clipPath><clipPath id="clip8"><path fill="#fff" d="M708 658h10v13h-10z"/></clipPath><clipPath id="clip9"><path fill="#fff" d="M708 705h10v13h-10z"/></clipPath><clipPath id="clip10"><path fill="#fff" d="M708 736h10v13h-10z"/></clipPath><clipPath id="clip11"><path fill="#fff" d="M708 767h10v13h-10z"/></clipPath><clipPath id="clip12"><path fill="#fff" d="M708 798h10v13h-10z"/></clipPath><filter id="filter0_dd" width="42.24" height="42.24" x="175.91" y="596.87" color-interpolation-filters="sRGB" filterUnits="userSpaceOnUse"><feFlood flood-opacity="0" result="BackgroundImageFix"/><feColorMatrix in="SourceAlpha" values="0 0 0 0 0 0 0 0 0 0 0 0 0 0 0 0 0 0 127 0"/><feOffset dy="4"/><feGaussianBlur stdDeviation="4"/><feColorMatrix values="0 0 0 0 0 0 0 0 0 0 0 0 0 0 0 0 0 0 0.25 0"/><feBlend in2="BackgroundImageFix" result="effect1_dropShadow"/><feColorMatrix in="SourceAlpha" values="0 0 0 0 0 0 0 0 0 0 0 0 0 0 0 0 0 0 127 0"/><feOffset dy="1"/><feGaussianBlur stdDeviation="1"/><feColorMatrix values="0 0 0 0 0 0 0 0 0 0 0 0 0 0 0 0 0 0 0.16 0"/><feBlend in2="effect1_dropShadow" result="effect2_dropShadow"/><feBlend in="SourceGraphic" in2="effect2_dropShadow" result="shape"/></filter><filter id="filter1_dd" width="42.24" height="42.24" x="134.92" y="596.87" color-interpolation-filters="sRGB" filterUnits="userSpaceOnUse"><feFlood flood-opacity="0" result="BackgroundImageFix"/><feColorMatrix in="SourceAlpha" values="0 0 0 0 0 0 0 0 0 0 0 0 0 0 0 0 0 0 127 0"/><feOffset dy="4"/><feGaussianBlur stdDeviation="4"/><feColorMatrix values="0 0 0 0 0 0 0 0 0 0 0 0 0 0 0 0 0 0 0.25 0"/><feBlend in2="BackgroundImageFix" result="effect1_dropShadow"/><feColorMatrix in="SourceAlpha" values="0 0 0 0 0 0 0 0 0 0 0 0 0 0 0 0 0 0 127 0"/><feOffset dy="1"/><feGaussianBlur stdDeviation="1"/><feColorMatrix values="0 0 0 0 0 0 0 0 0 0 0 0 0 0 0 0 0 0 0.16 0"/><feBlend in2="effect1_dropShadow" result="effect2_dropShadow"/><feBlend in="SourceGraphic" in2="effect2_dropShadow" result="shape"/></filter><filter id="filter2_dd" width="42.24" height="42.24" x="967.91" y="376.87" color-interpolation-filters="sRGB" filterUnits="userSpaceOnUse"><feFlood flood-opacity="0" result="BackgroundImageFix"/><feColorMatrix in="SourceAlpha" values="0 0 0 0 0 0 0 0 0 0 0 0 0 0 0 0 0 0 127 0"/><feOffset dy="4"/><feGaussianBlur stdDeviation="4"/><feColorMatrix values="0 0 0 0 0 0 0 0 0 0 0 0 0 0 0 0 0 0 0.25 0"/><feBlend in2="BackgroundImageFix" result="effect1_dropShadow"/><feColorMatrix in="SourceAlpha" values="0 0 0 0 0 0 0 0 0 0 0 0 0 0 0 0 0 0 127 0"/><feOffset dy="1"/><feGaussianBlur stdDeviation="1"/><feColorMatrix values="0 0 0 0 0 0 0 0 0 0 0 0 0 0 0 0 0 0 0.16 0"/><feBlend in2="effect1_dropShadow" result="effect2_dropShadow"/><feBlend in="SourceGraphic" in2="effect2_dropShadow" result="shape"/></filter><filter id="filter3_dd" width="42.24" height="42.24" x="926.92" y="376.87" color-interpolation-filters="sRGB" filterUnits="userSpaceOnUse"><feFlood flood-opacity="0" result="BackgroundImageFix"/><feColorMatrix in="SourceAlpha" values="0 0 0 0 0 0 0 0 0 0 0 0 0 0 0 0 0 0 127 0"/><feOffset dy="4"/><feGaussianBlur stdDeviation="4"/><feColorMatrix values="0 0 0 0 0 0 0 0 0 0 0 0 0 0 0 0 0 0 0.25 0"/><feBlend in2="BackgroundImageFix" result="effect1_dropShadow"/><feColorMatrix in="SourceAlpha" values="0 0 0 0 0 0 0 0 0 0 0 0 0 0 0 0 0 0 127 0"/><feOffset dy="1"/><feGaussianBlur stdDeviation="1"/><feColorMatrix values="0 0 0 0 0 0 0 0 0 0 0 0 0 0 0 0 0 0 0.16 0"/><feBlend in2="effect1_dropShadow" result="effect2_dropShadow"/><feBlend in="SourceGraphic" in2="effect2_dropShadow" result="shape"/></filter></defs></svg>